# xmcd
#
# Track frame offsets:
#	183
#	15470
#	28145
#	44695
#	63833
#	80308
#	98770
#	120933
#	137245
#	148783
#	171883
#	193558
#	210033
#	230908
#
# Disc length: 3333 seconds
#
# Revision: 1
# Processed by: cddbd v1.5PL3 Copyright (c) Steve Scherf et al.
# Submitted via: CDex 1.50Beta5
#
DISCID=b90d030e
DTITLE=欧陽 菲菲 - SUPER VALUE 欧陽 菲菲
DYEAR=1900
DGENRE=
TTITLE0=雨の御堂筋
TTITLE1=雨のエアボート
TTITLE2=恋の十字路
TTITLE3=真夏の夜の夢
TTITLE4=星影のバラード
TTITLE5=雨のエトランゼ
TTITLE6=愛して
TTITLE7=雨に咲く傘の花
TTITLE8=夜汽車
TTITLE9=追憶〜Never Fall in Love
TTITLE10=We Love Heart
TTITLE11=雨のメモリ-
TTITLE12=ラヴ・イズ・オーヴァー
TTITLE13=ほっといて〜Stop teasing me〜
EXTD=
EXTT0=
EXTT1=
EXTT2=
EXTT3=
EXTT4=
EXTT5=
EXTT6=
EXTT7=
EXTT8=
EXTT9=
EXTT10=
EXTT11=
EXTT12=
EXTT13=
PLAYORDER=
